<svg xmlns="http://www.w3.org/2000/svg" width="700.759" height="95" viewBox="0 0 700.759 95">
  <g id="HOKKAIDO" transform="translate(-71.26 -419.516)">
    <path id="Path_12736" data-name="Path 12736" d="M166.789,420.216c-.4-.686-.948-.481-1.4-.481q-13.384-.018-26.768-.008a2.583,2.583,0,0,0-.731.03,2.8,2.8,0,0,0-.624.379,2.688,2.688,0,0,0,1.279.431,6.552,6.552,0,0,1,5.9,5.833,11.154,11.154,0,0,1-.2,3.487q-3.012,15.8-6.107,31.592c-.334,1.72-.692,3.437-1.046,5.187H101.223c.038-.309.053-.545.1-.776q.839-4.4,1.685-8.8c1.794-9.23,3.613-18.456,5.379-27.692.636-3.325-.058-6.241-2.962-8.345-.119-.086-.168-.269-.319-.526,1,0,1.834.05,2.66-.015.781-.061,1.65.316,2.382-.378-.412-.606-1-.4-1.495-.4q-8.015-.022-16.031-.009c-.784,0-1.57-.018-2.352.03-.224.013-.435.228-.625.335.053.177.06.258.082.262.377.077.754.157,1.135.21a6.54,6.54,0,0,1,5.922,5.807,11.7,11.7,0,0,1-.216,3.63q-3.718,19.409-7.511,38.8c-2.316,11.923-4.718,23.83-6.911,35.776-.85,4.628-4.969,8.854-9.936,9.189a4.189,4.189,0,0,0-.947.324c.6.66,1.226.447,1.776.448q13.016.022,26.033.009a6.067,6.067,0,0,0,1.172-.043c.219-.043.4-.272.793-.56-.531-.1-.8-.161-1.077-.2-4.555-.568-7.116-3.98-6.253-8.52,2.1-11.066,4.27-22.12,6.414-33.179.286-1.477.58-2.952.872-4.434h35.878c-.069.519-.1.956-.188,1.383q-2.405,12.4-4.818,24.808c-.764,3.942-1.569,7.879-2.238,11.837a7.261,7.261,0,0,0,2.965,7.5,2.246,2.246,0,0,0,.541.214l-.213.406c-.807,0-1.618-.044-2.421.012-.831.058-1.733-.278-2.54.328.4.664.994.433,1.482.434q8.751.025,17.5.009a3.966,3.966,0,0,0,1.022-.054c.2-.055.352-.307.636-.575-.385-.08-.57-.134-.759-.157-4.79-.557-7.29-3.868-6.473-8.6.241-1.4.523-2.792.793-4.186q3.9-20.122,7.8-40.243c2.016-10.385,4.105-20.756,6.024-31.159.912-4.941,5.375-8.82,9.887-9.05A3.781,3.781,0,0,0,166.789,420.216Z" transform="translate(0 -0.112)" fill="#fff"/>
    <path id="Path_12737" data-name="Path 12737" d="M1387.79,424.725a40.743,40.743,0,0,0-20.336-4.961q-27.058-.022-54.116,0a9.544,9.544,0,0,0-1.32.045c-.187.026-.349.229-.714.487a8.059,8.059,0,0,0,.859.261c.337.056.686.047,1.021.112,4.065.785,6.3,4.3,5.465,8.62q-2.322,12.046-4.66,24.087-4.966,25.6-9.935,51.2a11.049,11.049,0,0,1-9.734,9.214c-.391.045-.888-.093-1.061.7.583.036,1.1.1,1.608.1q26.984.007,53.969,0a48.293,48.293,0,0,0,12.66-1.539c17.942-4.861,31.153-15.666,39.655-32.115,4.9-9.471,6.87-19.593,4.968-30.207C1404.064,439.252,1398,430.473,1387.79,424.725Zm1.749,57.124a60.392,60.392,0,0,1-18.3,23.748,37.947,37.947,0,0,1-16.925,7.768,25.933,25.933,0,0,1-4.236.408q-17.427.05-34.853.021c-.337,0-.674-.028-1.253-.054.372-1.992.7-3.816,1.055-5.636q5.424-27.979,10.854-55.957,2.21-11.393,4.422-22.786c.661-3.383-.158-6.208-3.01-8.31a2.774,2.774,0,0,1-.358-.491h1.565c12.843,0,25.686.03,38.529-.01,9.453-.029,16.677,4.041,21.925,11.769a36.342,36.342,0,0,1,5.7,14.991C1396.552,459.347,1394.449,470.829,1389.539,481.849Z" transform="translate(-740.235 -0.146)" fill="#fff"/>
    <path id="Path_12738" data-name="Path 12738" d="M616.87,420.044a7.079,7.079,0,0,0-1.228-.282q-8.309-.018-16.619,0a4.384,4.384,0,0,0-.995.239l.064.435c.422.058.846.1,1.266.175,2.3.41,3.255,1.912,2.636,4.163a4.612,4.612,0,0,1-.46,1.234,33.594,33.594,0,0,1-2.284,3.409q-26.21,32.138-52.461,64.242c-.3.366-.629.706-.945,1.059a3.22,3.22,0,0,1,.01-1.483q3.739-19.329,7.485-38.657,2.462-12.693,4.937-25.383a9.988,9.988,0,0,1,2.1-4.479,10.709,10.709,0,0,1,7.652-4.16c.369-.03.794.021.874-.72-.6-.03-1.163-.083-1.724-.083q-12.943-.008-25.885,0a7.414,7.414,0,0,0-1.174.029,2.1,2.1,0,0,0-.625.337c.055.176.062.257.085.261.377.076.755.156,1.135.209a6.541,6.541,0,0,1,5.92,5.808,11.667,11.667,0,0,1-.216,3.63q-3.565,18.614-7.206,37.215c-2.418,12.451-4.917,24.889-7.215,37.362-.854,4.636-4.973,8.854-9.936,9.189a4.639,4.639,0,0,0-1,.34,2.159,2.159,0,0,0,1.823.435q13.016.016,26.032.006a6.072,6.072,0,0,0,1.172-.043c.218-.044.4-.273.789-.56-.531-.1-.8-.16-1.077-.194-4.559-.57-7.081-3.985-6.264-8.52.434-2.41.923-4.81,1.361-7.219a4.7,4.7,0,0,1,1.024-2.223q8.681-10.568,17.32-21.171c.268-.328.57-.629.973-1.07.212.591.394,1.03.53,1.483q3.857,12.878,7.7,25.759c.573,1.924,1.2,3.841,1.613,5.8a5.65,5.65,0,0,1-3.078,6.514,16.224,16.224,0,0,1-2.544.653c-.3.076-.586.186-.878.281.005.119.011.237.016.356.543.052,1.086.148,1.629.148q13.678.014,27.356.006a6.163,6.163,0,0,0,1.172-.042c.219-.043.4-.269.612-.42-.119-.137-.142-.189-.178-.2a2.122,2.122,0,0,0-.416-.117c-5.754-.732-9.517-3.89-11.188-9.411-3.972-13.124-7.877-26.269-11.8-39.407-.307-1.029-.956-2.147-.764-3.085.2-.993,1.185-1.849,1.89-2.714,8.086-9.916,16.12-19.873,24.3-29.708,4.071-4.893,9.2-8.184,15.7-8.934A4.317,4.317,0,0,0,616.87,420.044Z" transform="translate(-272.47 -0.137)" fill="#fff"/>
    <path id="Path_12739" data-name="Path 12739" d="M839.989,420.131c-.017-.1-.034-.2-.05-.3-.51-.032-1.02-.09-1.531-.091q-6.251-.012-12.5,0c-1.177,0-2.353,0-3.53,0-.377,0-.779-.01-.958.634.517.084.973.147,1.425.233,2.223.423,3.2,1.905,2.582,4.072a11.176,11.176,0,0,1-1.139,2.533,18.225,18.225,0,0,1-1.648,2.25q-26.183,32.066-52.378,64.121c-.3.371-.627.727-.942,1.089l-.262-.088c.065-.429.115-.86.2-1.285q3.015-15.578,6.035-31.155,3.129-16.155,6.266-32.309a10.92,10.92,0,0,1,9.955-9.3,5.372,5.372,0,0,0,.995-.367,2.214,2.214,0,0,0-1.829-.421q-13.016-.016-26.032-.007a6.3,6.3,0,0,0-1.172.04c-.215.041-.395.266-.831.582.675.1,1.041.161,1.409.209a6.539,6.539,0,0,1,6.012,5.878,11.839,11.839,0,0,1-.244,3.629q-3.258,17.028-6.59,34.042-3.975,20.481-7.946,40.963a10.068,10.068,0,0,1-2.087,4.484,10.865,10.865,0,0,1-7.637,4.2c-.347.034-.831-.11-.867.7.559.032,1.119.092,1.677.093q12.943.009,25.885,0a7.076,7.076,0,0,0,1.318-.056c.2-.038.351-.306.662-.6-.511-.07-.8-.112-1.081-.148a6.828,6.828,0,0,1-6.212-8.434c.462-2.554.952-5.1,1.492-7.642a4.117,4.117,0,0,1,.791-1.681q8.807-10.845,17.666-21.647c.2-.242.447-.444.768-.758.139.374.233.589.3.813q4.595,15.341,9.181,30.684a13.508,13.508,0,0,1,.375,1.571,5.8,5.8,0,0,1-4.992,7.04c-.289.049-.6.012-.875.088a3.248,3.248,0,0,0-.665.355q.018.15.036.3c.558.039,1.115.112,1.673.113q13.6.011,27.209,0a7.078,7.078,0,0,0,1.318-.055c.2-.038.357-.3.606-.534a4.129,4.129,0,0,0-.573-.182c-5.821-.712-9.6-3.9-11.287-9.482-4.159-13.785-8.258-27.587-12.416-41.371a2.022,2.022,0,0,1,.384-2.13c8.641-10.538,17.176-21.164,25.916-31.618a23.078,23.078,0,0,1,15.525-8.671C839.59,420.493,839.784,420.264,839.989,420.131Z" transform="translate(-407.937 -0.127)" fill="#fff"/>
    <path id="Path_12740" data-name="Path 12740" d="M390.826,449.943c-2.591-12.824-9.881-22.011-21.961-27.148a42.492,42.492,0,0,0-27.248-1.9c-19.012,4.64-32.777,16.009-41.41,33.485a46.089,46.089,0,0,0-4.37,29.435,35.685,35.685,0,0,0,17.414,25.162c6.438,3.836,13.5,5.388,21.252,5.441a46.96,46.96,0,0,0,11.754-1.513c19.081-5.233,32.78-16.9,40.986-34.853A45,45,0,0,0,390.826,449.943Zm-33.92,54.831a38.168,38.168,0,0,1-16.124,8.132c-11.178,2.579-21.523-1.509-27.876-11.058a37.913,37.913,0,0,1-5.867-16.16c-2.821-20.792,6.98-43.839,22.819-56.48a40.155,40.155,0,0,1,16.01-8.055c11.276-2.628,21.737,1.544,28.07,11.232a37.744,37.744,0,0,1,5.691,15.761c.345,2.519.481,5.066.7,7.511C379.306,475.365,372.11,492,356.906,504.775Z" transform="translate(-135.568)" fill="#fff"/>
    <path id="Path_12741" data-name="Path 12741" d="M1699.864,451.775a35.924,35.924,0,0,0-13.222-23.507c-7.4-5.982-16.027-8.407-25.525-8.513a53.181,53.181,0,0,0-10.817,1.262,61.859,61.859,0,0,0-41.957,34.743c-3.938,8.949-5.642,18.267-3.791,27.96,2.706,14.174,10.917,23.834,24.566,28.615,8.926,3.126,18.043,2.942,27.058.4,16.19-4.571,28.474-14.337,36.934-28.8C1698.911,474.014,1701.558,463.3,1699.864,451.775Zm-34.234,53.158a38.171,38.171,0,0,1-16.127,8.125c-11.118,2.561-21.437-1.49-27.787-10.958a37.88,37.88,0,0,1-5.938-16.286c-2.8-20.722,6.931-43.647,22.608-56.287a40.3,40.3,0,0,1,16.243-8.232c11.271-2.623,21.738,1.562,28.062,11.254a37.746,37.746,0,0,1,5.682,15.765c.344,2.519.479,5.066.7,7.5C1688.041,475.53,1680.84,492.16,1665.63,504.932Z" transform="translate(-928.35 -0.145)" fill="#fff"/>
    <path id="Path_12742" data-name="Path 12742" d="M1035.159,505.118c-.811-6.167-1.506-12.348-2.229-18.526q-1.835-15.688-3.645-31.38-2.006-17.147-4.044-34.291a9.152,9.152,0,0,0-.212-.949l-.4-.116c-.3.534-.61,1.06-.886,1.6q-14.422,28.52-28.838,57.045c-4.419,8.743-8.777,17.517-13.28,26.217a16.108,16.108,0,0,1-13.007,9.149,2.269,2.269,0,0,0-.68.346,1.727,1.727,0,0,0,1.111.417q8.16.017,16.321.007a1.485,1.485,0,0,0,.581-.035,5.031,5.031,0,0,0,.779-.6c-.643-.087-1.02-.131-1.4-.189-3.239-.5-4.854-2.846-4.055-6.042a15.291,15.291,0,0,1,1.236-3.129q15.886-31.486,31.807-62.953c.214-.423.457-.831.686-1.247a4.17,4.17,0,0,1,.5,1.679q.956,8.173,1.9,16.346,1.111,9.486,2.232,18.97.971,8.245,1.943,16.49c.434,3.7.9,7.391,1.267,11.094a10.451,10.451,0,0,1-.157,3.348c-.725,3.1-3.164,5.064-6.527,5.47-.4.048-.921-.152-1.1.657a11.524,11.524,0,0,0,1.254.138q13.675.012,27.349,0a3.928,3.928,0,0,0,.877-.045,3.636,3.636,0,0,0,.782-.5c-.586-.127-.886-.216-1.192-.253A9.955,9.955,0,0,1,1035.159,505.118Z" transform="translate(-543.168 -0.206)" fill="#fff"/>
    <path id="Path_12743" data-name="Path 12743" d="M1238.82,420.253l-.029-.35c-.5-.047-1-.135-1.5-.136q-13.232-.012-26.464,0a5.371,5.371,0,0,0-1.025.044c-.191.037-.352.228-.722.485a7.935,7.935,0,0,0,.855.265c.337.055.686.046,1.021.11,4.011.771,6.31,4.25,5.5,8.468-1.953,10.194-3.953,20.378-5.931,30.566-2.892,14.9-5.857,29.783-8.633,44.7-1.048,5.631-5.778,9.222-10.057,9.4a2.651,2.651,0,0,0-.8.318c.016.117.033.233.05.35.558.037,1.116.105,1.674.106q10.218.011,20.436,0c2.009,0,4.019.011,6.028-.008.452,0,1,.177,1.4-.639-.554-.077-.974-.13-1.393-.2a6.562,6.562,0,0,1-5.765-5.124,9.769,9.769,0,0,1-.017-3.638c1.706-9.094,3.49-18.173,5.254-27.256,3.1-15.955,6.277-31.9,9.266-47.872,1.019-5.446,5.743-9.146,9.982-9.3A3.135,3.135,0,0,0,1238.82,420.253Z" transform="translate(-678.313 -0.147)" fill="#fff"/>
  </g>
</svg>
