<svg xmlns="http://www.w3.org/2000/svg" width="638" height="219.598" viewBox="0 0 638 219.598">
  <g id="WHERE_DREAMS_GO" data-name="WHERE DREAMS GO" transform="translate(-20.056 -217.544)">
    <g id="Group_10475" data-name="Group 10475" transform="translate(20.056 271.215)">
      <path id="Path_12785" data-name="Path 12785" d="M1368.158,405.589q-7.474,14.761-14.944,29.523c-4.976,9.805-9.915,19.629-15.042,29.379-.352-1.852-.571-3.656-.782-5.46q-.933-7.965-1.862-15.93-1.088-9.255-2.183-18.51-1.078-9.184-2.146-18.369c-.73-6.218-1.491-12.433-2.191-18.654a12.68,12.68,0,0,0-6.137-9.789c-.344-.216-.693-.424-1.039-.635a3.459,3.459,0,0,1,1.482-.234c1.639,0,3.277,0,4.916,0,.454,0,.977.081,1.172-.8-.566-.029-.992-.068-1.418-.068q-12-.006-24,0a4.9,4.9,0,0,0-1.007.046c-.188.04-.342.241-.756.556a10.32,10.32,0,0,0,1.279.293,11.966,11.966,0,0,1,7.755,3.753,2.2,2.2,0,0,1,.651,2.2q-2.107,10.626-4.156,21.264-3.7,19-7.386,38c-2.289,11.768-4.538,23.544-6.893,35.3-1.053,5.259-4.4,8.531-9.474,10.071-.821.249-1.71.264-2.558.434a2.815,2.815,0,0,0-.736.4q.033.175.065.35c.5.038.995.108,1.492.109q9.543.011,19.085,0a3.664,3.664,0,0,0,1.005-.04c.242-.071.429-.328.884-.7-.959-.138-1.572-.22-2.182-.315a7.8,7.8,0,0,1-6.791-7.629,19.82,19.82,0,0,1,.442-4.151q4.382-22.691,8.818-45.371,4.518-23.253,9.025-46.509a10.237,10.237,0,0,1,.337-1.056,11.031,11.031,0,0,1,1.631,5.294c.625,5.358,1.236,10.717,1.866,16.075.72,6.122,1.46,12.242,2.179,18.365.724,6.171,1.425,12.344,2.151,18.514.912,7.749,1.847,15.495,2.757,23.244q1.357,11.551,2.693,23.106a7.918,7.918,0,0,0,.31,1.149l.341.045c.331-.551.7-1.085.987-1.657q17.958-35.447,35.9-70.9,8.746-17.274,17.5-34.547c.234-.461.5-.907.747-1.36a5.322,5.322,0,0,1-.105,1.813q-4.707,24.173-9.417,48.345c-3.031,15.6-6,31.2-9.089,46.791-1.048,5.3-4.389,8.655-9.538,10.2-.821.246-1.711.26-2.559.431a2.594,2.594,0,0,0-.716.414l.076.358c.5.032.994.092,1.491.093q15.977.008,31.954,0a5.04,5.04,0,0,0,1.15-.053c.213-.051.376-.312.8-.691-.742-.11-1.2-.2-1.655-.242a8.075,8.075,0,0,1-7.172-9.939c1.617-8.563,3.318-17.111,4.98-25.665q6.944-35.73,13.885-71.462c.291-1.5.552-3.006.849-4.632h-13.8Q1375.643,390.813,1368.158,405.589Z" transform="translate(-853.129 -375.945)" fill="#fff"/>
      <path id="Path_12786" data-name="Path 12786" d="M491.228,421.868c6.512-6.774,10.3-14.738,9.873-24.325a21.549,21.549,0,0,0-8.041-16.35,23.086,23.086,0,0,0-15.141-5.165q-25.808,0-51.616,0a4.691,4.691,0,0,0-1.148.063c-.181.047-.3.342-.536.637a8.467,8.467,0,0,0,1.009.193c4.891.238,8.692,4.356,7.639,10.084-.74,4.025-1.556,8.035-2.336,12.053q-3.825,19.709-7.649,39.418c-2.522,13-4.986,26.007-7.6,38.987-1.053,5.236-4.417,8.534-9.507,10.055-.822.246-1.711.26-2.559.43a2.51,2.51,0,0,0-.7.413l.083.364c.5.029,1,.083,1.493.084q15.976.008,31.953,0a4.958,4.958,0,0,0,1.149-.055c.213-.052.374-.315.79-.695-.884-.128-1.485-.209-2.085-.3a7.9,7.9,0,0,1-6.743-6.436,10.968,10.968,0,0,1,.17-4.441q3.74-19.284,7.494-38.565c.348-1.79.718-3.576,1.086-5.4a6.36,6.36,0,0,1,.636-.084q13.808-.006,27.615,0a7.688,7.688,0,0,1,6.038,2.937,15.121,15.121,0,0,1,2.77,5.194,34.35,34.35,0,0,1,1.307,13.288c-.341,4.723-1.495,9.313-2.353,13.95-.657,3.55-1.473,7.078-1.949,10.652a8.384,8.384,0,0,0,3.5,8.225,9.142,9.142,0,0,0,5.565,1.726c2.988.015,5.976.005,8.964.005,1.205,0,2.41,0,3.615-.005.431,0,.9.015.928-.777-.684-.1-1.388-.171-2.077-.311a7.741,7.741,0,0,1-6.3-5.667,9.454,9.454,0,0,1-.115-4.58c1.073-5.579,2.174-11.152,3.263-16.728a26.073,26.073,0,0,0,.258-9.912c-1.774-9.369-7.27-15.386-16.43-18.054-.3-.089-.6-.211-1.176-.416.592-.157.892-.243,1.195-.316A35.736,35.736,0,0,0,491.228,421.868Zm-20.008,8.886a8.507,8.507,0,0,1-4.557,1.185q-13.513-.013-27.027-.007c-.327,0-.655-.061-1.112-.106.356-1.907.688-3.745,1.045-5.577,2.537-13.039,5.111-26.07,7.6-39.119.6-3.165.379-6.811-4.161-10.048a6.518,6.518,0,0,1,.984-.168q16.693-.011,33.386-.011a7.689,7.689,0,0,1,6.148,2.979,17.172,17.172,0,0,1,3.39,7.57,39.68,39.68,0,0,1,.25,14.368A52.476,52.476,0,0,1,480.8,420.58a28.867,28.867,0,0,1-5.624,7.3A28.016,28.016,0,0,1,471.22,430.754Z" transform="translate(-273.063 -375.944)" fill="#fff"/>
      <path id="Path_12787" data-name="Path 12787" d="M154.659,412.817c-2.591-14.144-10.167-24.789-22.955-31.526a47.853,47.853,0,0,0-22.713-5.278q-32.675.024-65.35.005a8.585,8.585,0,0,0-1.011.015,4.853,4.853,0,0,0-.789.233c.213.877.855.618,1.309.664a8.021,8.021,0,0,1,7.323,6.7,12.955,12.955,0,0,1-.3,4.731q-4.138,21.193-8.258,42.389c-3.021,15.549-5.982,31.109-9.07,46.644-1.054,5.3-4.456,8.615-9.6,10.137-.777.23-1.618.238-2.42.395a3.187,3.187,0,0,0-.762.376l.057.371c.49.042.979.12,1.469.12q32.748.008,65.495,0a59.137,59.137,0,0,0,14.444-1.814,73.883,73.883,0,0,0,48.465-40.767C154.72,435.545,156.787,424.432,154.659,412.817Zm-16.5,28.515a75.834,75.834,0,0,1-21.1,33.473,50.647,50.647,0,0,1-19.643,11.533A37.5,37.5,0,0,1,86.6,487.927q-20.236.034-40.472.009H44.752c.452-2.381.855-4.55,1.275-6.715q4.157-21.4,8.319-42.807,4.565-23.457,9.131-46.915a53.023,53.023,0,0,0,.975-6.121,8.368,8.368,0,0,0-3.853-7.916,5.846,5.846,0,0,1-.447-.4,7.093,7.093,0,0,1,1-.156c16,0,31.993-.06,47.988.026,9.749.053,17.546,4.238,23.528,11.843a42.283,42.283,0,0,1,8.118,18.778C142.924,419.038,141.7,430.295,138.164,441.332Z" transform="translate(-20.056 -375.935)" fill="#fff"/>
      <path id="Path_12788" data-name="Path 12788" d="M796.793,466.089c-2.687,11.063-13.908,21.8-27.742,21.839-10.363.028-20.725.007-31.088,0-.366,0-.733-.067-1.277-.121l10.686-55h8.8c4.1,0,8.194-.027,12.291.007,5.856.048,9.3,3.936,8.683,9.733a5.672,5.672,0,0,0,.145,1.107c.335-.325.552-.445.631-.626.462-1.057,4.09-20.864,3.968-21.791a1.851,1.851,0,0,0-.868,1.323,13.222,13.222,0,0,1-12.366,9.381c-6.6-.1-13.206-.021-19.809-.027-.4,0-.807-.067-1.2-.1a3.022,3.022,0,0,1,0-.426q2.9-14.96,5.8-29.921c.962-4.963,2-9.914,2.845-14.9a8.682,8.682,0,0,0-3.606-9.006,8.532,8.532,0,0,1-.666-.626c.45-.023.689-.045.928-.045q19.159,0,38.317.017a19.413,19.413,0,0,1,3.591.32c6.947,1.329,11.788,5.227,14.2,11.938a20.037,20.037,0,0,1,.786,9.7c-.068.485-.3,1,.111,1.553.219-.137.479-.208.505-.33,1.712-7.932,3.154-15.915,4.751-24.081H735.65a8.351,8.351,0,0,0-1.3.033c-.22.035-.41.256-.614.394q.018.152.036.3c.441.064.881.147,1.324.19a7.987,7.987,0,0,1,7.11,5.875,9.971,9.971,0,0,1,.073,4.586c-.885,4.586-1.792,9.167-2.684,13.752q-3.834,19.709-7.664,39.418c-2.39,12.288-4.74,24.585-7.193,36.861-1.051,5.261-4.4,8.533-9.474,10.071-.821.249-1.71.264-2.558.435a2.8,2.8,0,0,0-.734.4l.07.348c.593.038,1.186.11,1.778.111q38.824.008,77.647,0c.241,0,.482.006.723,0,1.062-.037,1.125-.074,1.334-1.1.375-1.84.732-3.683,1.091-5.526q1.587-8.153,3.161-16.308c.091-.474.329-1-.126-1.526C796.815,464.713,796.935,465.508,796.793,466.089Z" transform="translate(-477.296 -375.934)" fill="#fff"/>
      <path id="Path_12789" data-name="Path 12789" d="M1060.759,477.475q-1.47-12.266-2.892-24.537c-.911-7.8-1.8-15.6-2.717-23.394-1.012-8.61-2.051-17.216-3.063-25.826q-1.374-11.695-2.719-23.394c-.166-1.423-.37-2.842-.575-4.406-1.024.291-1.131,1.033-1.416,1.594q-25.115,49.557-50.22,99.12a19.456,19.456,0,0,1-1.923,3.217c-3.461,4.425-7.829,7.364-13.549,7.985-.4.043-.914-.072-1.042.768.5.047.991.133,1.482.134q9.543.014,19.085.005a3.77,3.77,0,0,0,1.006-.036c.254-.072.457-.322.95-.695-1.013-.152-1.674-.235-2.328-.353a5.142,5.142,0,0,1-4.419-6.188,15.114,15.114,0,0,1,1.35-4.084q19.243-38.116,38.563-76.193c.159-.314.365-.6.689-1.133.117.69.207,1.1.256,1.525.62,5.31,1.227,10.621,1.851,15.931.822,6.983,1.662,13.964,2.482,20.948.725,6.171,1.424,12.344,2.15,18.514.811,6.888,1.675,13.769,2.446,20.661.536,4.794-2.036,8.711-6.378,9.858-.74.2-1.525.221-2.278.374a3.15,3.15,0,0,0-.764.392l.059.35c.541.043,1.083.123,1.624.123q16.194.011,32.387,0a5.119,5.119,0,0,0,1.151-.038c.247-.058.446-.314.667-.482a4.767,4.767,0,0,0-1.779-.513A12,12,0,0,1,1060.759,477.475Z" transform="translate(-654.841 -375.874)" fill="#fff"/>
      <path id="Path_12790" data-name="Path 12790" d="M1720.123,377.1a8.322,8.322,0,0,1-6.279,5.61,5.287,5.287,0,0,1-4.887-1.073,23.2,23.2,0,0,0-15.648-5.757c-4.916-.024-9.832-.044-14.747.017a25.751,25.751,0,0,0-5.022.481c-11.733,2.5-20.257,9.249-25.731,19.846a28.25,28.25,0,0,0-3.169,15.658,21.725,21.725,0,0,0,9.281,16.584,22.3,22.3,0,0,0,12.724,4.153c4.914.1,9.831.058,14.746.046a7.8,7.8,0,0,1,6.52,3.133,17.3,17.3,0,0,1,1.873,3.072,23.647,23.647,0,0,1,2.013,7.941,45.6,45.6,0,0,1-.87,13.937,49.569,49.569,0,0,1-7.682,18.559,24.7,24.7,0,0,1-6.088,6.316,11.613,11.613,0,0,1-6.907,2.178c-4.1-.034-8.194.045-12.289-.033a30.827,30.827,0,0,1-5.742-.542c-8.381-1.769-14.04-6.686-16.659-14.907a23.981,23.981,0,0,1-.625-11.3c.066-.4.313-.83-.218-1.236-.629.273-.623.887-.727,1.414-.55,2.787-1.084,5.576-1.627,8.364q-1.752,9-3.5,18.006a4.86,4.86,0,0,0,.032,1.047c.906-.173.814-.826.98-1.278a8.293,8.293,0,0,1,5.618-5.39,5.566,5.566,0,0,1,5.583.937,23.619,23.619,0,0,0,15.806,5.761c4.771.051,9.542.04,14.313-.007a25.771,25.771,0,0,0,4.456-.38c11.694-2.183,20.293-8.684,26.044-18.992a28.383,28.383,0,0,0,3.711-16.115c-.634-8.73-4.774-15.208-12.711-19.088a23.677,23.677,0,0,0-10.361-2.273c-4.578-.033-9.157-.05-13.734,0a7.67,7.67,0,0,1-6.681-3.36,19.743,19.743,0,0,1-2.186-4.046,27.591,27.591,0,0,1-1.714-9.914,49.394,49.394,0,0,1,1.725-13.576,46.762,46.762,0,0,1,8.257-17.36,22.6,22.6,0,0,1,4.763-4.607,11.345,11.345,0,0,1,6.888-2.2c4.24.076,8.482-.008,12.723.036a28.172,28.172,0,0,1,4.6.336c8.12,1.438,13.919,5.858,16.964,13.609a23.8,23.8,0,0,1,1.164,12.378c-.073.49-.115.984-.172,1.476l.351.135c.18-.216.45-.405.522-.652.187-.645.292-1.315.42-1.976q2.433-12.548,4.86-25.1c.06-.311.056-.635.1-1.186C1720.386,376.326,1720.4,376.331,1720.123,377.1Z" transform="translate(-1083.191 -375.787)" fill="#fff"/>
    </g>
    <g id="Group_10476" data-name="Group 10476" transform="translate(296.879 383.24)">
      <path id="Path_12791" data-name="Path 12791" d="M1048.038,724.793c-1.066-7.622-4.982-13.24-11.991-16.538a23.823,23.823,0,0,0-15.68-1.5c-11.042,2.468-19.019,8.974-24.047,19.039a25.926,25.926,0,0,0-2.7,15.561c1.188,8.16,5.566,13.883,13.236,17.008a24.614,24.614,0,0,0,9.048,1.59c.819-.056,1.928-.1,3.028-.216a19.526,19.526,0,0,0,2.419-.4c11.016-2.58,18.993-9.039,24-19.111A26.012,26.012,0,0,0,1048.038,724.793Zm-19.387,29.561a21.588,21.588,0,0,1-10.756,4.956,13.987,13.987,0,0,1-13.089-4.845,19.63,19.63,0,0,1-4.474-10.031c-.273-1.658-.347-3.348-.5-4.862.529-11.047,4.5-20.3,12.778-27.518a21.076,21.076,0,0,1,11.207-5.3,13.947,13.947,0,0,1,12.967,4.8,19.838,19.838,0,0,1,4.566,10.3C1043.252,733.679,1037.7,747.058,1028.651,754.354Z" transform="translate(-940.068 -706.079)" fill="#fff"/>
      <path id="Path_12792" data-name="Path 12792" d="M886.977,707.722a4.321,4.321,0,0,1-5.915,1.817c-5.556-3.371-11.605-3.93-17.855-2.689a33.109,33.109,0,0,0-18.541,10.771c-5.647,6.307-8.812,13.617-8.394,22.243.485,9.99,7.636,18.884,19.541,20.029a29.279,29.279,0,0,0,14.258-2.29c.369-.154.761-.257,1.276-.428l-.4,2.676c1.891.383,10.63.278,11.538-.131-.546-.144-1.068-.235-1.555-.418a3.512,3.512,0,0,1-2.417-3.129,6.753,6.753,0,0,1,.1-1.867c.576-3.076,1.189-6.144,1.791-9.215.417-2.126.841-4.25,1.251-6.377.368-1.913.147-3.653-1.493-4.97-.074-.059-.054-.234-.081-.376l2.3-.1-.009-.226h-6.239c-.089.383-.163.658-.218.937-1.359,6.994-2.732,13.985-4.054,20.986a2.571,2.571,0,0,1-1.73,2.18,33.411,33.411,0,0,1-9.783,2.388,14.379,14.379,0,0,1-11.906-4.05,17.921,17.921,0,0,1-4.333-7.088,28.456,28.456,0,0,1-.854-14.69,36.367,36.367,0,0,1,11.428-20.916c4.982-4.5,10.71-6.91,17.6-5.839a21.746,21.746,0,0,1,12.791,6.425,2.136,2.136,0,0,1,.644,2.206c-.155.6-.208,1.22-.306,1.832l.362.051,2.11-10.894-.306-.092C887.378,706.893,887.193,707.316,886.977,707.722Z" transform="translate(-836.234 -706.189)" fill="#fff"/>
    </g>
    <g id="Group_10477" data-name="Group 10477" transform="translate(228.409 217.544)">
      <path id="Path_12793" data-name="Path 12793" d="M869.345,217.892c-1.2-.429-15.4-.434-16.575-.034a1.487,1.487,0,0,0,.393.175c2.782.286,3.983,2.818,3.469,5.275-1.38,6.6-2.6,13.227-3.884,19.843-.072.367-.2.724-.293,1.069h-20.25c.056-.459.08-.836.151-1.2q1.9-9.783,3.807-19.564c.369-1.9.2-3.656-1.424-5-.076-.063-.067-.228-.1-.368l2.337-.119c-1.278-.494-10.162-.476-11.524-.074.557.117.839.164,1.114.236a3.773,3.773,0,0,1,3.082,4.245,10.32,10.32,0,0,1-.2,1.282q-1.357,7.019-2.723,14.037-2.73,14.036-5.466,28.069a6.187,6.187,0,0,1-5.055,5.114c-.291.07-.585.123-1.049.22,1.412.422,15.574.4,16.771-.013-.427-.1-.737-.161-1.044-.24a3.767,3.767,0,0,1-3.058-4.125,10.2,10.2,0,0,1,.208-1.427q1.378-7.163,2.768-14.322c.4-2.067.823-4.13,1.237-6.2h20.392c-.531,2.756-1.038,5.4-1.547,8.035q-1.287,6.665-2.577,13.329a4.334,4.334,0,0,0,1.227,4.1c.153.155.286.33.634.735h-2.594c0,.1,0,.2.005.3a20.843,20.843,0,0,0,3.789.118c1.252.03,2.506.025,3.759,0a15.044,15.044,0,0,0,3.75-.224,6.108,6.108,0,0,0-1.244-.437,3.771,3.771,0,0,1-2.737-4.08c.06-.621.2-1.236.317-1.851q2.959-15.241,5.923-30.482c.707-3.639,1.387-7.283,2.111-10.918a6.284,6.284,0,0,1,5.492-5.354C868.907,218.016,869.075,217.962,869.345,217.892Z" transform="translate(-753.834 -217.557)" fill="#fff"/>
      <path id="Path_12794" data-name="Path 12794" d="M1134.958,218.155a15.614,15.614,0,0,0-4.134-.542c-7.806-.05-15.613-.026-23.42-.02-.4,0-.81.072-1.215.11l.005.186a2.158,2.158,0,0,0,.373.161c2.946.671,4.041,2.263,3.469,5.224-2.665,13.8-5.405,27.59-8,41.405-.668,3.56-2.4,5.781-6.04,6.356-.037.006-.068.057-.1.088,1.021.395,15.228.417,16.455.006a1.884,1.884,0,0,0-.375-.185c-2.95-.648-4.055-2.261-3.493-5.2,1.029-5.391,2.086-10.776,3.132-16.163.311-1.6.625-3.2.924-4.727a1.741,1.741,0,0,1,.4-.143c4.337-.009,8.674-.033,13.01-.006a3.689,3.689,0,0,1,3.245,1.861,10.941,10.941,0,0,1,1.079,2.348,15.917,15.917,0,0,1,.371,7.439c-.5,3.088-1.156,6.15-1.715,9.228a8.517,8.517,0,0,0-.144,2.008,3.677,3.677,0,0,0,3.037,3.579c2.47.231,4.975.089,7.466.1.028,0,.056-.073.136-.184-.424-.11-.823-.2-1.212-.317a3.676,3.676,0,0,1-2.785-3.753,9.387,9.387,0,0,1,.2-1.571c.551-3.079,1.253-6.14,1.639-9.239a10.523,10.523,0,0,0-7-11.246L1129,244.5c.647-.2,1.09-.339,1.532-.479a17.2,17.2,0,0,0,11.968-14.845A10.532,10.532,0,0,0,1134.958,218.155Zm-2.391,21.008a19.521,19.521,0,0,1-2.912,3.552,5.615,5.615,0,0,1-4.2,1.6c-3.8-.034-7.606-.008-11.409-.014-.419,0-.837-.044-1.38-.075.416-2.186.8-4.258,1.2-6.328.939-4.864,1.857-9.732,2.839-14.587a4.656,4.656,0,0,0-1.439-4.839c-.054-.047-.044-.169-.1-.426h1.258c4.718,0,9.436.047,14.153-.021a4.174,4.174,0,0,1,4.3,2.755,14.4,14.4,0,0,1,1.082,4.155A23.409,23.409,0,0,1,1132.567,239.164Z" transform="translate(-939.359 -217.569)" fill="#fff"/>
      <path id="Path_12795" data-name="Path 12795" d="M700,217.827a10.985,10.985,0,0,0-3.606-.255c-1.2-.041-2.409-.032-3.613,0a10.182,10.182,0,0,0-3.289.247,1.74,1.74,0,0,0,.694.26c1.9.493,2.622,1.7,2.084,3.568a11.613,11.613,0,0,1-.836,1.99q-8.73,17.276-17.479,34.542c-.212.419-.455.823-.858,1.549-.123-.729-.208-1.127-.255-1.529q-.651-5.524-1.291-11.049c-.725-6.169-1.353-12.353-2.237-18.5a8.011,8.011,0,0,1,1.236-5.721c.052-.081.094-.168.145-.25a9.6,9.6,0,0,1,6.1-4.51c.39-.095.783-.18,1.322-.3-1.4-.425-9.35-.4-10.492.034.386.082.664.126.934.2a2.53,2.53,0,0,1,2.01,3.387,7.268,7.268,0,0,1-.606,1.614q-8.988,17.794-18,35.576a6.888,6.888,0,0,1-.547.783c-.122-.184-.2-.253-.214-.331q-.609-5.165-1.207-10.331-.961-8.178-1.928-16.356c-.375-3.2-.759-6.409-1.094-9.618a4.117,4.117,0,0,1,3.45-4.743c.279-.065.557-.137,1.035-.256-1.743-.41-16.027-.335-17.1.077.38.076.657.124.931.187a5.692,5.692,0,0,1,4.7,5.015c.186,1.14.293,2.292.426,3.44q1.079,9.256,2.154,18.512,1.1,9.4,2.214,18.794c.287,2.43.587,4.859.881,7.288l.4.1c5.719-11.175,11.319-22.412,17.046-33.584l.343.079q1.97,16.714,3.939,33.428l.341.091c.243-.429.5-.849.726-1.288q6.4-12.629,12.79-25.261c3.567-7.046,7.148-14.083,10.692-21.14a9.961,9.961,0,0,1,5.622-5.117C698.267,218.184,699.023,218.068,700,217.827Z" transform="translate(-634.359 -217.544)" fill="#fff"/>
      <path id="Path_12796" data-name="Path 12796" d="M1000.581,218.115a8.691,8.691,0,0,1,8.7,9.989,9.273,9.273,0,0,0,0,1.01l.309.025,2.232-11.488c-12.889,0-25.554,0-38.218.008a2.621,2.621,0,0,0-.678.262c.593.152,1.008.243,1.413.365A3.637,3.637,0,0,1,977.1,221.9a8.685,8.685,0,0,1-.183,1.718c-.62,3.262-1.259,6.521-1.894,9.781q-3.159,16.228-6.326,32.455a6.175,6.175,0,0,1-5.079,5.088c-.281.066-.563.126-1.049.235,1.386.356,37.412.374,38.71.081.771-2.168,2.239-10.487,1.949-11.354-.1.349-.191.613-.264.88A14.221,14.221,0,0,1,989.3,271.019c-4.429-.136-8.864-.026-13.3-.026h-1.62l5.1-26.263h4c2.023,0,4.049-.053,6.07.021,2.671.1,4.055,1.557,4.128,4.19a6.769,6.769,0,0,0,.184.918c.983-3.031,2.1-9.486,1.833-10.429-.069.15-.134.271-.183.4a6.318,6.318,0,0,1-6.483,4.524q-4.047.013-8.094,0c-.408,0-.816-.062-1.282-.1.043-.417.05-.7.1-.981q1.918-9.85,3.848-19.7c.386-1.963.182-3.744-1.461-5.126-.049-.04-.023-.17-.036-.3.185-.016.369-.047.552-.047C988.633,218.1,994.608,218.046,1000.581,218.115Z" transform="translate(-851.251 -217.615)" fill="#fff"/>
      <path id="Path_12797" data-name="Path 12797" d="M1292.007,217.57h-28.165c-3.084,0-6.168-.006-9.252.007-.413,0-.9-.145-1.285.29a2.289,2.289,0,0,0,.351.159c2.941.62,4.085,2.258,3.526,5.183q-2.356,12.341-4.759,24.674-1.715,8.862-3.447,17.72a6.267,6.267,0,0,1-5.235,5.288c-.234.05-.464.123-.9.24,1.6.373,37.6.341,38.8-.007l2.15-11.143-.329-.079c-.127.393-.259.785-.381,1.18a14.086,14.086,0,0,1-13.222,9.843c-4.626.015-9.252.005-13.878,0-.412,0-.824-.05-1.37-.085l5.09-26.163c3.527,0,6.849,0,10.171.007a4.679,4.679,0,0,1,1,.155,3.711,3.711,0,0,1,3.027,3.563c.024.38.051.76.095,1.41A53.418,53.418,0,0,0,1276,239.346a1.668,1.668,0,0,0-.268.347c-1.269,3.267-3.195,4.591-6.707,4.6q-3.831.006-7.662,0H1259.8c.24-1.293.441-2.422.658-3.547q1.711-8.863,3.434-17.723a4.455,4.455,0,0,0-1.276-4.36c-.126-.121-.225-.269-.455-.547.335-.039.505-.076.675-.076,6.024,0,12.048-.065,18.07.021a8.6,8.6,0,0,1,8.642,8.948c0,.651,0,1.3,0,1.952C1290.6,225.279,1291.281,221.536,1292.007,217.57Z" transform="translate(-1036.463 -217.551)" fill="#fff"/>
    </g>
  </g>
</svg>
